<svg version="1.2" xmlns="http://www.w3.org/2000/svg" viewBox="0 0 328 10" width="328" height="10">
	<title>New Project</title>
	<style>
		.s0 { fill: #71c82d } 
		.s1 { fill: #ffffff;stroke: #71c82d;stroke-width: 3 } 
	</style>
	<path id="Layer" class="s0" d="m0 5.5c0-0.8 0.7-1.5 1.5-1.5h324c0.8 0 1.5 0.7 1.5 1.5c0 0.8-0.7 1.5-1.5 1.5h-324c-0.8 0-1.5-0.7-1.5-1.5z" />
	<path id="Layer" class="s1" d="m5 8.5c-1.9 0-3.5-1.6-3.5-3.5c0-1.9 1.6-3.5 3.5-3.5c1.9 0 3.5 1.6 3.5 3.5c0 1.9-1.6 3.5-3.5 3.5z" />
	<path id="Layer" class="s1" d="m164 8.5c-1.9 0-3.5-1.6-3.5-3.5c0-1.9 1.6-3.5 3.5-3.5c1.9 0 3.5 1.6 3.5 3.5c0 1.9-1.6 3.5-3.5 3.5z" />
	<path id="Layer copy" class="s1" d="m322 8.5c-1.9 0-3.5-1.6-3.5-3.5c0-1.9 1.6-3.5 3.5-3.5c1.9 0 3.5 1.6 3.5 3.5c0 1.9-1.6 3.5-3.5 3.5z" />
</svg>